<svg xmlns="http://www.w3.org/2000/svg" xmlns:xlink="http://www.w3.org/1999/xlink" width="500" zoomAndPan="magnify" viewBox="0 0 375 374.999991" height="500" preserveAspectRatio="xMidYMid meet" version="1.2"><defs><clipPath id="c57545c0df"><path d="M 12.882812 12.882812 L 362.117188 12.882812 L 362.117188 362.117188 L 12.882812 362.117188 Z M 12.882812 12.882812 "/></clipPath><clipPath id="d28adfbe84"><path d="M 187.5 12.882812 C 91.0625 12.882812 12.882812 91.0625 12.882812 187.5 C 12.882812 283.9375 91.0625 362.117188 187.5 362.117188 C 283.9375 362.117188 362.117188 283.9375 362.117188 187.5 C 362.117188 91.0625 283.9375 12.882812 187.5 12.882812 Z M 187.5 12.882812 "/></clipPath><clipPath id="6969a78f63"><path d="M 119.976562 98 L 254.976562 98 L 254.976562 259 L 119.976562 259 Z M 119.976562 98 "/></clipPath></defs><g id="dd9df4fb01"><g clip-rule="nonzero" clip-path="url(#c57545c0df)"><g clip-rule="nonzero" clip-path="url(#d28adfbe84)"><path style=" stroke:none;fill-rule:nonzero;fill:#ffffff;fill-opacity:1;" d="M 12.882812 12.882812 L 362.117188 12.882812 L 362.117188 362.117188 L 12.882812 362.117188 Z M 12.882812 12.882812 "/></g></g><g clip-rule="nonzero" clip-path="url(#6969a78f63)"><path style=" stroke:none;fill-rule:nonzero;fill:#002060;fill-opacity:1;" d="M 130.523438 98.601562 C 124.746094 98.601562 119.976562 103.367188 119.976562 109.148438 L 119.976562 248.355469 C 119.976562 254.136719 124.746094 258.902344 130.523438 258.902344 L 244.421875 258.902344 C 250.199219 258.902344 254.96875 254.136719 254.96875 248.355469 L 254.96875 135.292969 C 254.96875 134.214844 254.574219 133.207031 253.847656 132.414062 C 241.894531 119.582031 233.480469 110.574219 223.484375 99.941406 C 222.691406 99.085938 221.574219 98.601562 220.40625 98.601562 Z M 130.523438 107.039062 L 217.003906 107.039062 L 217.003906 130.238281 C 217.003906 136.019531 221.769531 140.785156 227.546875 140.785156 L 246.53125 140.785156 L 246.53125 248.355469 C 246.53125 249.609375 245.675781 250.464844 244.421875 250.464844 L 130.523438 250.464844 C 129.269531 250.464844 128.414062 249.609375 128.414062 248.355469 L 128.414062 109.148438 C 128.414062 107.894531 129.269531 107.039062 130.523438 107.039062 Z M 130.523438 107.039062 "/></g>

<path style=" stroke:none;fill-rule:nonzero;fill:#002060;fill-opacity:1;" d="M 153.484375 145 C 151.175781 145 149.285156 146.894531 149.285156 149.222656 C 149.285156 151.550781 151.175781 153.417969 153.484375 153.417969 L 200.152344 153.417969 C 202.457031 153.417969 204.347656 151.550781 204.347656 149.222656 C 204.347656 146.894531 202.457031 145 200.152344 145 Z"/>

<path style=" stroke:none;fill-rule:nonzero;fill:#002060;fill-opacity:1;" d="M 153.484375 168 C 151.175781 168 149.285156 169.894531 149.285156 172.222656 C 149.285156 174.550781 151.175781 176.417969 153.484375 176.417969 L 221.441406 176.417969 C 223.769531 176.417969 225.660156 174.550781 225.660156 172.222656 C 225.660156 169.894531 223.769531 168 221.441406 168 Z"/>

<path style=" stroke:none;fill-rule:nonzero;fill:#002060;fill-opacity:1;" d="M 153.484375 191 C 151.175781 191 149.285156 192.894531 149.285156 195.222656 C 149.285156 197.550781 151.175781 199.417969 153.484375 199.417969 L 200.152344 199.417969 C 202.457031 199.417969 204.347656 197.550781 204.347656 195.222656 C 204.347656 192.894531 202.457031 191 200.152344 191 Z"/>

<path style=" stroke:none;fill-rule:nonzero;fill:#002060;fill-opacity:1;" d="M 153.484375 214 C 151.175781 214 149.285156 215.894531 149.285156 218.222656 C 149.285156 220.550781 151.175781 222.417969 153.484375 222.417969 L 221.441406 222.417969 C 223.769531 222.417969 225.660156 220.550781 225.660156 218.222656 C 225.660156 215.894531 223.769531 214 221.441406 214 Z"/>

</g></svg>