<svg xmlns="http://www.w3.org/2000/svg" xmlns:xlink="http://www.w3.org/1999/xlink" width="500" zoomAndPan="magnify" viewBox="0 0 375 374.999991" height="500" preserveAspectRatio="xMidYMid meet" version="1.0"><defs><clipPath id="adafd75f95"><path d="M 118.121094 155.046875 L 166.207031 155.046875 L 166.207031 203.132812 L 118.121094 203.132812 Z M 118.121094 155.046875 " clip-rule="nonzero"/></clipPath><clipPath id="7ae08ff822"><path d="M 142.164062 155.046875 C 128.886719 155.046875 118.121094 165.8125 118.121094 179.089844 C 118.121094 192.367188 128.886719 203.132812 142.164062 203.132812 C 155.441406 203.132812 166.207031 192.367188 166.207031 179.089844 C 166.207031 165.8125 155.441406 155.046875 142.164062 155.046875 Z M 142.164062 155.046875 " clip-rule="nonzero"/></clipPath><clipPath id="452c4ba7ae"><path d="M 0.121094 0.046875 L 48.207031 0.046875 L 48.207031 48.132812 L 0.121094 48.132812 Z M 0.121094 0.046875 " clip-rule="nonzero"/></clipPath><clipPath id="0d5f44e443"><path d="M 24.164062 0.046875 C 10.886719 0.046875 0.121094 10.8125 0.121094 24.089844 C 0.121094 37.367188 10.886719 48.132812 24.164062 48.132812 C 37.441406 48.132812 48.207031 37.367188 48.207031 24.089844 C 48.207031 10.8125 37.441406 0.046875 24.164062 0.046875 Z M 24.164062 0.046875 " clip-rule="nonzero"/></clipPath><clipPath id="858a58e674"><rect x="0" width="49" y="0" height="49"/></clipPath><clipPath id="3368ee30b3"><path d="M 12.882812 12.882812 L 362.117188 12.882812 L 362.117188 362.117188 L 12.882812 362.117188 Z M 12.882812 12.882812 " clip-rule="nonzero"/></clipPath><clipPath id="b2e074f90e"><path d="M 187.5 12.882812 C 91.0625 12.882812 12.882812 91.0625 12.882812 187.5 C 12.882812 283.9375 91.0625 362.117188 187.5 362.117188 C 283.9375 362.117188 362.117188 283.9375 362.117188 187.5 C 362.117188 91.0625 283.9375 12.882812 187.5 12.882812 Z M 187.5 12.882812 " clip-rule="nonzero"/></clipPath><clipPath id="54d5e558f1"><path d="M 0.882812 0.882812 L 350.117188 0.882812 L 350.117188 350.117188 L 0.882812 350.117188 Z M 0.882812 0.882812 " clip-rule="nonzero"/></clipPath><clipPath id="0c0642cd48"><path d="M 175.5 0.882812 C 79.0625 0.882812 0.882812 79.0625 0.882812 175.5 C 0.882812 271.9375 79.0625 350.117188 175.5 350.117188 C 271.9375 350.117188 350.117188 271.9375 350.117188 175.5 C 350.117188 79.0625 271.9375 0.882812 175.5 0.882812 Z M 175.5 0.882812 " clip-rule="nonzero"/></clipPath><clipPath id="81ef1b89b0"><rect x="0" width="351" y="0" height="351"/></clipPath><clipPath id="63b9f7c175"><path d="M 140 249 L 235 249 L 235 276.84375 L 140 276.84375 Z M 140 249 " clip-rule="nonzero"/></clipPath><clipPath id="9f2c3c5b73"><path d="M 82.457031 98.34375 L 292 98.34375 L 292 244 L 82.457031 244 Z M 82.457031 98.34375 " clip-rule="nonzero"/></clipPath></defs><g clip-path="url(#adafd75f95)"><g clip-path="url(#7ae08ff822)"><g transform="matrix(1, 0, 0, 1, 118, 155)"><g clip-path="url(#858a58e674)"><g clip-path="url(#452c4ba7ae)"><g clip-path="url(#0d5f44e443)"><path fill="#002060" d="M 0.121094 0.046875 L 48.207031 0.046875 L 48.207031 48.132812 L 0.121094 48.132812 Z M 0.121094 0.046875 " fill-opacity="1" fill-rule="nonzero"/></g></g></g></g></g></g><g clip-path="url(#3368ee30b3)"><g clip-path="url(#b2e074f90e)"><g transform="matrix(1, 0, 0, 1, 12, 12)"><g clip-path="url(#81ef1b89b0)"><g clip-path="url(#54d5e558f1)"><g clip-path="url(#0c0642cd48)"><path fill="#002060" d="M 0.882812 0.882812 L 350.117188 0.882812 L 350.117188 350.117188 L 0.882812 350.117188 Z M 0.882812 0.882812 " fill-opacity="1" fill-rule="nonzero"/></g></g></g></g></g></g><g clip-path="url(#63b9f7c175)"><path fill="#ffffff" d="M 224.421875 257.699219 L 216.160156 257.699219 L 216.160156 249.195312 L 158.832031 249.195312 L 158.832031 257.699219 L 150.574219 257.699219 C 144.988281 257.699219 140.613281 262.070312 140.613281 267.171875 C 140.613281 272.515625 144.988281 276.644531 150.574219 276.644531 L 224.421875 276.644531 C 230.007812 276.644531 234.378906 272.273438 234.378906 267.171875 C 234.378906 261.828125 230.007812 257.699219 224.421875 257.699219 Z M 224.421875 257.699219 " fill-opacity="1" fill-rule="nonzero"/></g><g clip-path="url(#9f2c3c5b73)"><path fill="#ffffff" d="M 277.132812 98.34375 L 97.859375 98.34375 C 89.601562 98.34375 82.800781 105.144531 82.800781 113.648438 L 82.800781 228.0625 C 82.800781 236.5625 89.601562 243.367188 97.859375 243.367188 L 276.890625 243.367188 C 285.148438 243.367188 291.953125 236.5625 291.953125 228.0625 L 291.953125 113.648438 C 292.195312 105.144531 285.394531 98.34375 277.132812 98.34375 Z M 187.496094 236.078125 C 184.097656 236.078125 181.179688 233.164062 181.179688 229.761719 C 181.179688 226.359375 184.097656 223.445312 187.496094 223.445312 C 190.898438 223.445312 193.8125 226.359375 193.8125 229.761719 C 193.8125 233.40625 190.898438 236.078125 187.496094 236.078125 Z M 278.347656 216.644531 L 96.644531 216.644531 L 96.644531 113.648438 C 96.644531 112.675781 97.375 111.949219 98.105469 111.949219 L 277.132812 111.949219 C 277.863281 111.949219 278.589844 112.675781 278.589844 113.648438 Z M 278.347656 216.644531 " fill-opacity="1" fill-rule="nonzero"/></g><path fill="#ffffff" d="M 200.371094 131.867188 L 245.796875 131.867188 L 245.796875 139.152344 L 200.371094 139.152344 Z M 200.371094 131.867188 " fill-opacity="1" fill-rule="nonzero"/><path fill="#ffffff" d="M 200.371094 153.242188 L 268.875 153.242188 L 268.875 160.53125 L 200.371094 160.53125 Z M 200.371094 153.242188 " fill-opacity="1" fill-rule="nonzero"/><path fill="#ffffff" d="M 200.371094 165.390625 L 268.875 165.390625 L 268.875 172.675781 L 200.371094 172.675781 Z M 200.371094 165.390625 " fill-opacity="1" fill-rule="nonzero"/><path fill="#ffffff" d="M 200.371094 177.535156 L 268.875 177.535156 L 268.875 184.824219 L 200.371094 184.824219 Z M 200.371094 177.535156 " fill-opacity="1" fill-rule="nonzero"/><path fill="#ffffff" d="M 200.371094 189.679688 L 234.621094 189.679688 L 234.621094 196.96875 L 200.371094 196.96875 Z M 200.371094 189.679688 " fill-opacity="1" fill-rule="nonzero"/><path fill="#ffffff" d="M 146.929688 180.9375 L 145.472656 180.449219 L 124.824219 171.703125 L 124.824219 183.609375 C 124.824219 189.921875 134.542969 195.023438 146.929688 195.023438 C 159.320312 195.023438 169.035156 189.679688 169.035156 183.609375 L 169.035156 171.703125 L 148.386719 180.449219 Z M 146.929688 180.9375 " fill-opacity="1" fill-rule="nonzero"/><path fill="#ffffff" d="M 184.582031 180.691406 L 184.582031 161.746094 L 187.496094 160.53125 L 147.171875 143.285156 L 106.847656 160.53125 L 147.171875 177.777344 L 169.277344 168.304688 L 181.667969 162.960938 L 181.667969 180.691406 C 181.425781 180.9375 180.9375 181.421875 180.9375 181.90625 L 180.9375 185.792969 C 180.9375 186.523438 181.910156 187.25 183.125 187.25 C 184.582031 187.25 185.3125 186.523438 185.3125 185.792969 L 185.3125 181.90625 C 185.066406 181.421875 184.824219 180.9375 184.582031 180.691406 Z M 184.582031 180.691406 " fill-opacity="1" fill-rule="nonzero"/></svg>