<svg xmlns="http://www.w3.org/2000/svg" xmlns:xlink="http://www.w3.org/1999/xlink" width="500" zoomAndPan="magnify" viewBox="0 0 375 374.999991" height="500" preserveAspectRatio="xMidYMid meet" version="1.0"><defs><clipPath id="f28df9a1a6"><path d="M 118.121094 155.046875 L 166.207031 155.046875 L 166.207031 203.132812 L 118.121094 203.132812 Z M 118.121094 155.046875 " clip-rule="nonzero"/></clipPath><clipPath id="cda8ead477"><path d="M 142.164062 155.046875 C 128.886719 155.046875 118.121094 165.8125 118.121094 179.089844 C 118.121094 192.367188 128.886719 203.132812 142.164062 203.132812 C 155.441406 203.132812 166.207031 192.367188 166.207031 179.089844 C 166.207031 165.8125 155.441406 155.046875 142.164062 155.046875 Z M 142.164062 155.046875 " clip-rule="nonzero"/></clipPath><clipPath id="056af72321"><path d="M 0.121094 0.046875 L 48.207031 0.046875 L 48.207031 48.132812 L 0.121094 48.132812 Z M 0.121094 0.046875 " clip-rule="nonzero"/></clipPath><clipPath id="14f6f9ae5c"><path d="M 24.164062 0.046875 C 10.886719 0.046875 0.121094 10.8125 0.121094 24.089844 C 0.121094 37.367188 10.886719 48.132812 24.164062 48.132812 C 37.441406 48.132812 48.207031 37.367188 48.207031 24.089844 C 48.207031 10.8125 37.441406 0.046875 24.164062 0.046875 Z M 24.164062 0.046875 " clip-rule="nonzero"/></clipPath><clipPath id="11e770b729"><rect x="0" width="49" y="0" height="49"/></clipPath><clipPath id="61b9663e32"><path d="M 12.882812 12.882812 L 362.117188 12.882812 L 362.117188 362.117188 L 12.882812 362.117188 Z M 12.882812 12.882812 " clip-rule="nonzero"/></clipPath><clipPath id="4b2ca379a7"><path d="M 187.5 12.882812 C 91.0625 12.882812 12.882812 91.0625 12.882812 187.5 C 12.882812 283.9375 91.0625 362.117188 187.5 362.117188 C 283.9375 362.117188 362.117188 283.9375 362.117188 187.5 C 362.117188 91.0625 283.9375 12.882812 187.5 12.882812 Z M 187.5 12.882812 " clip-rule="nonzero"/></clipPath><clipPath id="9404310f7b"><path d="M 0.882812 0.882812 L 350.117188 0.882812 L 350.117188 350.117188 L 0.882812 350.117188 Z M 0.882812 0.882812 " clip-rule="nonzero"/></clipPath><clipPath id="9d9ad6e517"><path d="M 175.5 0.882812 C 79.0625 0.882812 0.882812 79.0625 0.882812 175.5 C 0.882812 271.9375 79.0625 350.117188 175.5 350.117188 C 271.9375 350.117188 350.117188 271.9375 350.117188 175.5 C 350.117188 79.0625 271.9375 0.882812 175.5 0.882812 Z M 175.5 0.882812 " clip-rule="nonzero"/></clipPath><clipPath id="d34ed69f03"><rect x="0" width="351" y="0" height="351"/></clipPath><clipPath id="38056ff7e7"><path d="M 82.457031 122 L 253 122 L 253 292.457031 L 82.457031 292.457031 Z M 82.457031 122 " clip-rule="nonzero"/></clipPath><clipPath id="5593b30883"><path d="M 153 82.457031 L 292 82.457031 L 292 240 L 153 240 Z M 153 82.457031 " clip-rule="nonzero"/></clipPath></defs><g clip-path="url(#f28df9a1a6)"><g clip-path="url(#cda8ead477)"><g transform="matrix(1, 0, 0, 1, 118, 155)"><g clip-path="url(#11e770b729)"><g clip-path="url(#056af72321)"><g clip-path="url(#14f6f9ae5c)"><path fill="#002060" d="M 0.121094 0.046875 L 48.207031 0.046875 L 48.207031 48.132812 L 0.121094 48.132812 Z M 0.121094 0.046875 " fill-opacity="1" fill-rule="nonzero"/></g></g></g></g></g></g><g clip-path="url(#61b9663e32)"><g clip-path="url(#4b2ca379a7)"><g transform="matrix(1, 0, 0, 1, 12, 12)"><g clip-path="url(#d34ed69f03)"><g clip-path="url(#9404310f7b)"><g clip-path="url(#9d9ad6e517)"><path fill="#002060" d="M 0.882812 0.882812 L 350.117188 0.882812 L 350.117188 350.117188 L 0.882812 350.117188 Z M 0.882812 0.882812 " fill-opacity="1" fill-rule="nonzero"/></g></g></g></g></g></g><g clip-path="url(#38056ff7e7)"><path fill="#ffffff" d="M 167.734375 122.050781 C 120.875 122.050781 82.847656 160.140625 82.847656 206.933594 C 82.847656 219.109375 85.335938 230.824219 90.308594 241.882812 L 82.585938 284.488281 C 82.195312 286.582031 82.847656 288.742188 84.355469 290.3125 C 85.597656 291.554688 87.300781 292.210938 89 292.210938 C 89.394531 292.210938 89.785156 292.210938 90.179688 292.078125 L 132.785156 284.359375 C 143.84375 289.332031 155.558594 291.882812 167.734375 291.882812 C 214.527344 291.882812 252.617188 253.792969 252.617188 206.933594 C 252.617188 160.140625 214.527344 122.050781 167.734375 122.050781 Z M 128.269531 222.183594 C 121.070312 222.183594 115.179688 216.359375 115.179688 209.09375 C 115.179688 201.894531 121.070312 196.003906 128.269531 196.003906 C 135.46875 196.003906 141.359375 201.894531 141.359375 209.09375 C 141.359375 216.359375 135.46875 222.183594 128.269531 222.183594 Z M 167.535156 222.183594 C 160.335938 222.183594 154.445312 216.359375 154.445312 209.09375 C 154.445312 201.894531 160.335938 196.003906 167.535156 196.003906 C 174.734375 196.003906 180.625 201.894531 180.625 209.09375 C 180.625 216.359375 174.734375 222.183594 167.535156 222.183594 Z M 206.804688 222.183594 C 199.605469 222.183594 193.714844 216.359375 193.714844 209.09375 C 193.714844 201.894531 199.605469 196.003906 206.804688 196.003906 C 214.003906 196.003906 219.894531 201.894531 219.894531 209.09375 C 219.894531 216.359375 214.003906 222.183594 206.804688 222.183594 Z M 206.804688 222.183594 " fill-opacity="1" fill-rule="nonzero"/></g><g clip-path="url(#5593b30883)"><path fill="#ffffff" d="M 289.984375 237.957031 C 288.742188 239.199219 287.039062 239.855469 285.339844 239.855469 C 284.945312 239.855469 284.554688 239.855469 284.160156 239.722656 L 261.453125 235.601562 C 264.199219 226.503906 265.707031 216.882812 265.707031 206.933594 C 265.707031 152.941406 221.726562 108.960938 167.734375 108.960938 C 163.019531 108.960938 158.4375 109.289062 153.921875 109.945312 C 168.648438 92.992188 190.179688 82.785156 213.152344 82.785156 C 256.410156 82.785156 291.554688 117.929688 291.554688 161.121094 C 291.554688 172.3125 289.265625 183.113281 284.683594 193.257812 L 291.753906 232.132812 C 292.144531 234.226562 291.492188 236.386719 289.984375 237.957031 Z M 289.984375 237.957031 " fill-opacity="1" fill-rule="nonzero"/></g></svg>