<svg xmlns="http://www.w3.org/2000/svg" xmlns:xlink="http://www.w3.org/1999/xlink" width="500" zoomAndPan="magnify" viewBox="0 0 375 374.999991" height="500" preserveAspectRatio="xMidYMid meet" version="1.0"><defs><clipPath id="88362e60f8"><path d="M 12.882812 12.882812 L 362.117188 12.882812 L 362.117188 362.117188 L 12.882812 362.117188 Z M 12.882812 12.882812 " clip-rule="nonzero"/></clipPath><clipPath id="0937cfee08"><path d="M 187.5 12.882812 C 91.0625 12.882812 12.882812 91.0625 12.882812 187.5 C 12.882812 283.9375 91.0625 362.117188 187.5 362.117188 C 283.9375 362.117188 362.117188 283.9375 362.117188 187.5 C 362.117188 91.0625 283.9375 12.882812 187.5 12.882812 Z M 187.5 12.882812 " clip-rule="nonzero"/></clipPath><clipPath id="cc3c4b0434"><path d="M 0.882812 0.882812 L 350.117188 0.882812 L 350.117188 350.117188 L 0.882812 350.117188 Z M 0.882812 0.882812 " clip-rule="nonzero"/></clipPath><clipPath id="bf7635c85f"><path d="M 175.5 0.882812 C 79.0625 0.882812 0.882812 79.0625 0.882812 175.5 C 0.882812 271.9375 79.0625 350.117188 175.5 350.117188 C 271.9375 350.117188 350.117188 271.9375 350.117188 175.5 C 350.117188 79.0625 271.9375 0.882812 175.5 0.882812 Z M 175.5 0.882812 " clip-rule="nonzero"/></clipPath><clipPath id="65da1e6a57"><rect x="0" width="351" y="0" height="351"/></clipPath><clipPath id="6f2636167f"><path d="M 118.121094 155.046875 L 166.207031 155.046875 L 166.207031 203.132812 L 118.121094 203.132812 Z M 118.121094 155.046875 " clip-rule="nonzero"/></clipPath><clipPath id="a20b56303e"><path d="M 142.164062 155.046875 C 128.886719 155.046875 118.121094 165.8125 118.121094 179.089844 C 118.121094 192.367188 128.886719 203.132812 142.164062 203.132812 C 155.441406 203.132812 166.207031 192.367188 166.207031 179.089844 C 166.207031 165.8125 155.441406 155.046875 142.164062 155.046875 Z M 142.164062 155.046875 " clip-rule="nonzero"/></clipPath><clipPath id="0afe4f7195"><path d="M 0.121094 0.046875 L 48.207031 0.046875 L 48.207031 48.132812 L 0.121094 48.132812 Z M 0.121094 0.046875 " clip-rule="nonzero"/></clipPath><clipPath id="2eddaa0976"><path d="M 24.164062 0.046875 C 10.886719 0.046875 0.121094 10.8125 0.121094 24.089844 C 0.121094 37.367188 10.886719 48.132812 24.164062 48.132812 C 37.441406 48.132812 48.207031 37.367188 48.207031 24.089844 C 48.207031 10.8125 37.441406 0.046875 24.164062 0.046875 Z M 24.164062 0.046875 " clip-rule="nonzero"/></clipPath><clipPath id="b5de3ab0b7"><rect x="0" width="49" y="0" height="49"/></clipPath><clipPath id="99a7063c39"><path d="M 139.898438 140.203125 L 235.101562 140.203125 L 235.101562 155.046875 L 139.898438 155.046875 Z M 139.898438 140.203125 " clip-rule="nonzero"/></clipPath><clipPath id="68da5b811b"><path d="M 0.898438 0.203125 L 96.101562 0.203125 L 96.101562 15.046875 L 0.898438 15.046875 Z M 0.898438 0.203125 " clip-rule="nonzero"/></clipPath><clipPath id="a013812300"><rect x="0" width="97" y="0" height="16"/></clipPath><clipPath id="01d3687f14"><path d="M 152.84375 121.652344 L 221.84375 121.652344 L 221.84375 208.652344 L 152.84375 208.652344 Z M 152.84375 121.652344 " clip-rule="nonzero"/></clipPath><clipPath id="6cf18faff9"><path d="M 102.898438 196.726562 L 159.148438 196.726562 L 159.148438 252.976562 L 102.898438 252.976562 Z M 102.898438 196.726562 " clip-rule="nonzero"/></clipPath><clipPath id="c7c8990a6b"><path d="M 215.480469 196.726562 L 271.730469 196.726562 L 271.730469 252.976562 L 215.480469 252.976562 Z M 215.480469 196.726562 " clip-rule="nonzero"/></clipPath><clipPath id="7bd16517cb"><path d="M 167.757812 212.796875 L 207.507812 212.796875 L 207.507812 252.546875 L 167.757812 252.546875 Z M 167.757812 212.796875 " clip-rule="nonzero"/></clipPath></defs><g clip-path="url(#88362e60f8)"><g clip-path="url(#0937cfee08)"><g transform="matrix(1, 0, 0, 1, 12, 12)"><g clip-path="url(#65da1e6a57)"><g clip-path="url(#cc3c4b0434)"><g clip-path="url(#bf7635c85f)"><path fill="#002060" d="M 0.882812 0.882812 L 350.117188 0.882812 L 350.117188 350.117188 L 0.882812 350.117188 Z M 0.882812 0.882812 " fill-opacity="1" fill-rule="nonzero"/></g></g></g></g></g></g><g clip-path="url(#6f2636167f)"><g clip-path="url(#a20b56303e)"><g transform="matrix(1, 0, 0, 1, 118, 155)"><g clip-path="url(#b5de3ab0b7)"><g clip-path="url(#0afe4f7195)"><g clip-path="url(#2eddaa0976)"><path fill="#002060" d="M 0.121094 0.046875 L 48.207031 0.046875 L 48.207031 48.132812 L 0.121094 48.132812 Z M 0.121094 0.046875 " fill-opacity="1" fill-rule="nonzero"/></g></g></g></g></g></g><g clip-path="url(#99a7063c39)"><g transform="matrix(1, 0, 0, 1, 139, 140)"><g clip-path="url(#a013812300)"><g clip-path="url(#68da5b811b)"><path fill="#002060" d="M 0.898438 0.203125 L 96.109375 0.203125 L 96.109375 15.046875 L 0.898438 15.046875 Z M 0.898438 0.203125 " fill-opacity="1" fill-rule="nonzero"/></g></g></g></g><g clip-path="url(#01d3687f14)"><path fill="#ffffff" d="M 220.171875 143.617188 L 200.1875 123.644531 C 198.917969 122.371094 197.226562 121.671875 195.421875 121.667969 L 159.589844 121.65625 L 159.585938 121.65625 C 157.785156 121.65625 156.089844 122.355469 154.816406 123.628906 C 153.542969 124.902344 152.839844 126.597656 152.839844 128.402344 L 152.839844 201.539062 C 152.839844 205.257812 155.867188 208.285156 159.585938 208.285156 L 215.402344 208.285156 C 219.121094 208.285156 222.148438 205.257812 222.148438 201.539062 L 222.148438 148.390625 C 222.148438 146.613281 221.425781 144.875 220.171875 143.617188 Z M 216.277344 145.292969 L 201.507812 145.292969 C 199.863281 145.292969 198.523438 143.953125 198.523438 142.308594 L 198.523438 127.550781 Z M 215.402344 204.347656 L 159.585938 204.347656 C 158.039062 204.347656 156.777344 203.085938 156.777344 201.539062 L 156.777344 128.402344 C 156.777344 127.648438 157.070312 126.945312 157.601562 126.414062 C 158.132812 125.882812 158.835938 125.59375 159.585938 125.59375 L 159.589844 125.59375 L 194.585938 125.605469 L 194.585938 142.308594 C 194.585938 146.125 197.691406 149.230469 201.507812 149.230469 L 218.210938 149.230469 L 218.210938 201.539062 C 218.210938 203.085938 216.949219 204.347656 215.402344 204.347656 Z M 215.402344 204.347656 " fill-opacity="1" fill-rule="nonzero"/></g><path fill="#ffffff" d="M 205.496094 189.585938 L 169.488281 189.585938 C 168.402344 189.585938 167.519531 190.464844 167.519531 191.554688 C 167.519531 192.640625 168.402344 193.523438 169.488281 193.523438 L 205.496094 193.523438 C 206.582031 193.523438 207.464844 192.640625 207.464844 191.554688 C 207.464844 190.464844 206.582031 189.585938 205.496094 189.585938 Z M 205.496094 189.585938 " fill-opacity="1" fill-rule="nonzero"/><path fill="#ffffff" d="M 205.496094 174.820312 L 169.488281 174.820312 C 168.402344 174.820312 167.519531 175.703125 167.519531 176.789062 C 167.519531 177.878906 168.402344 178.757812 169.488281 178.757812 L 205.496094 178.757812 C 206.582031 178.757812 207.464844 177.878906 207.464844 176.789062 C 207.464844 175.703125 206.582031 174.820312 205.496094 174.820312 Z M 205.496094 174.820312 " fill-opacity="1" fill-rule="nonzero"/><path fill="#ffffff" d="M 205.496094 160.058594 L 169.488281 160.058594 C 168.402344 160.058594 167.519531 160.9375 167.519531 162.027344 C 167.519531 163.113281 168.402344 163.996094 169.488281 163.996094 L 205.496094 163.996094 C 206.582031 163.996094 207.464844 163.113281 207.464844 162.027344 C 207.464844 160.9375 206.582031 160.058594 205.496094 160.058594 Z M 205.496094 160.058594 " fill-opacity="1" fill-rule="nonzero"/><g clip-path="url(#6cf18faff9)"><path fill="#ffffff" d="M 138.957031 224.476562 C 143.273438 221.839844 146.191406 217.132812 146.191406 211.714844 C 146.191406 203.453125 139.464844 196.730469 131.207031 196.730469 C 122.945312 196.730469 116.222656 203.453125 116.222656 211.714844 C 116.222656 217.132812 119.136719 221.839844 123.453125 224.476562 C 111.609375 227.859375 102.902344 238.757812 102.902344 251.671875 L 102.902344 253.339844 L 159.507812 253.339844 L 159.507812 251.671875 C 159.507812 238.757812 150.800781 227.859375 138.957031 224.476562 Z M 138.957031 224.476562 " fill-opacity="1" fill-rule="nonzero"/></g><g clip-path="url(#c7c8990a6b)"><path fill="#ffffff" d="M 251.539062 224.476562 C 255.855469 221.839844 258.773438 217.132812 258.773438 211.714844 C 258.773438 203.453125 252.050781 196.730469 243.789062 196.730469 C 235.527344 196.730469 228.804688 203.453125 228.804688 211.714844 C 228.804688 217.132812 231.722656 221.839844 236.035156 224.476562 C 224.191406 227.859375 215.484375 238.757812 215.484375 251.671875 L 215.484375 253.339844 L 272.09375 253.339844 L 272.09375 251.671875 C 272.09375 238.757812 263.382812 227.859375 251.539062 224.476562 Z M 251.539062 224.476562 " fill-opacity="1" fill-rule="nonzero"/></g><g clip-path="url(#7bd16517cb)"><path fill="#ffffff" d="M 187.5 212.796875 C 176.613281 212.796875 167.757812 221.652344 167.757812 232.535156 C 167.757812 243.421875 176.613281 252.277344 187.5 252.277344 C 198.382812 252.277344 207.238281 243.421875 207.238281 232.535156 C 207.238281 221.652344 198.382812 212.796875 187.5 212.796875 Z M 199.289062 232.804688 C 199.230469 233.429688 198.957031 234.039062 198.480469 234.519531 L 190.546875 242.453125 C 189.449219 243.550781 187.671875 243.550781 186.578125 242.453125 C 185.484375 241.359375 185.480469 239.582031 186.578125 238.488281 L 189.722656 235.34375 L 178.5 235.34375 C 176.953125 235.34375 175.695312 234.085938 175.695312 232.535156 C 175.695312 230.988281 176.953125 229.730469 178.5 229.730469 L 189.722656 229.730469 L 186.578125 226.585938 C 185.480469 225.488281 185.480469 223.714844 186.578125 222.617188 C 187.671875 221.523438 189.449219 221.523438 190.542969 222.617188 L 198.480469 230.550781 C 199.097656 231.167969 199.367188 232 199.289062 232.804688 Z M 199.289062 232.804688 " fill-opacity="1" fill-rule="nonzero"/></g></svg>