<svg xmlns="http://www.w3.org/2000/svg" xmlns:xlink="http://www.w3.org/1999/xlink" width="500" zoomAndPan="magnify" viewBox="0 0 375 374.999991" height="500" preserveAspectRatio="xMidYMid meet" version="1.0"><defs><clipPath id="a2cb678012"><path d="M 12.882812 12.882812 L 362.117188 12.882812 L 362.117188 362.117188 L 12.882812 362.117188 Z M 12.882812 12.882812 " clip-rule="nonzero"/></clipPath><clipPath id="55b47a363f"><path d="M 187.5 12.882812 C 91.0625 12.882812 12.882812 91.0625 12.882812 187.5 C 12.882812 283.9375 91.0625 362.117188 187.5 362.117188 C 283.9375 362.117188 362.117188 283.9375 362.117188 187.5 C 362.117188 91.0625 283.9375 12.882812 187.5 12.882812 Z M 187.5 12.882812 " clip-rule="nonzero"/></clipPath><clipPath id="00bbbf8310"><path d="M 0.882812 0.882812 L 350.117188 0.882812 L 350.117188 350.117188 L 0.882812 350.117188 Z M 0.882812 0.882812 " clip-rule="nonzero"/></clipPath><clipPath id="67be8fd945"><path d="M 175.5 0.882812 C 79.0625 0.882812 0.882812 79.0625 0.882812 175.5 C 0.882812 271.9375 79.0625 350.117188 175.5 350.117188 C 271.9375 350.117188 350.117188 271.9375 350.117188 175.5 C 350.117188 79.0625 271.9375 0.882812 175.5 0.882812 Z M 175.5 0.882812 " clip-rule="nonzero"/></clipPath><clipPath id="111dc24013"><rect x="0" width="351" y="0" height="351"/></clipPath><clipPath id="b525b11b87"><path d="M 98.050781 111 L 239 111 L 239 282.1875 L 98.050781 282.1875 Z M 98.050781 111 " clip-rule="nonzero"/></clipPath><clipPath id="f32a489c0a"><path d="M 136 92.4375 L 201 92.4375 L 201 132 L 136 132 Z M 136 92.4375 " clip-rule="nonzero"/></clipPath><clipPath id="b73a30b68e"><path d="M 195.449219 199.457031 L 281.699219 199.457031 L 281.699219 285.707031 L 195.449219 285.707031 Z M 195.449219 199.457031 " clip-rule="nonzero"/></clipPath><clipPath id="95580698e6"><path d="M 200.535156 204.542969 L 277 204.542969 L 277 281 L 200.535156 281 Z M 200.535156 204.542969 " clip-rule="nonzero"/></clipPath></defs><g clip-path="url(#a2cb678012)"><g clip-path="url(#55b47a363f)"><g transform="matrix(1, 0, 0, 1, 12, 12)"><g clip-path="url(#111dc24013)"><g clip-path="url(#00bbbf8310)"><g clip-path="url(#67be8fd945)"><path fill="#002060" d="M 0.882812 0.882812 L 350.117188 0.882812 L 350.117188 350.117188 L 0.882812 350.117188 Z M 0.882812 0.882812 " fill-opacity="1" fill-rule="nonzero"/></g></g></g></g></g></g><g clip-path="url(#b525b11b87)"><path fill="#ffffff" d="M 223.839844 126.160156 C 217.417969 124.765625 212.339844 125.949219 206.816406 125.328125 C 206.371094 120.667969 206.097656 116.167969 206.796875 111.511719 C 213.554688 111.0625 219.953125 111.3125 226.78125 111.289062 C 234.144531 111.261719 238.617188 117.300781 238.628906 124.621094 L 238.714844 196.964844 L 238.542969 271.175781 C 238.53125 277.097656 233.476562 282.414062 227.304688 282.421875 L 110.285156 282.558594 C 103.992188 282.566406 98.300781 277.886719 98.289062 271.347656 L 98.058594 124.699219 C 98.050781 117.125 102.363281 111.292969 110.191406 111.257812 C 116.902344 111.230469 123.421875 111.152344 130.296875 111.5 C 130.6875 116.167969 130.621094 120.660156 130.332031 125.449219 C 124.988281 125.933594 120.125 124.949219 114.742188 125.828125 C 112.78125 126.152344 112.53125 129.503906 112.535156 131.328125 L 112.648438 175.480469 L 112.65625 216.207031 L 112.523438 264.855469 C 112.90625 266.054688 113.070312 268.234375 114.898438 268.234375 L 223.753906 268.175781 L 223.832031 126.152344 Z M 223.839844 126.160156 " fill-opacity="1" fill-rule="nonzero"/></g><g clip-path="url(#f32a489c0a)"><path fill="#ffffff" d="M 196.15625 131.332031 L 140.769531 131.367188 C 138.183594 131.367188 136.542969 129.300781 136.542969 126.890625 L 136.550781 109.871094 C 136.550781 102.683594 148.722656 107.179688 154.039062 105.324219 C 155.632812 96.105469 164.363281 90.0625 173.105469 93.328125 C 178.199219 95.226562 181.214844 99.941406 182.894531 105.195312 C 187.746094 107.199219 200.351562 102.636719 200.347656 109.871094 L 200.34375 126.882812 C 200.34375 129.347656 198.800781 131.332031 196.15625 131.332031 Z M 173.699219 105.980469 C 173.699219 103.015625 171.292969 100.613281 168.324219 100.613281 C 165.359375 100.613281 162.953125 103.015625 162.953125 105.980469 C 162.953125 108.949219 165.359375 111.351562 168.324219 111.351562 C 171.292969 111.351562 173.699219 108.949219 173.699219 105.980469 Z M 173.699219 105.980469 " fill-opacity="1" fill-rule="nonzero"/></g><path fill="#ffffff" d="M 208.425781 165.984375 L 168.019531 166.113281 C 166.023438 166.117188 164.863281 164.464844 164.570312 163.347656 C 164.132812 161.667969 165.394531 159.425781 167.921875 159.421875 L 207.527344 159.339844 C 209.804688 159.335938 211.484375 160.65625 211.566406 162.410156 C 211.621094 163.640625 210.675781 165.980469 208.421875 165.988281 Z M 208.425781 165.984375 " fill-opacity="1" fill-rule="nonzero"/><path fill="#ffffff" d="M 207.503906 237.753906 L 166.8125 237.609375 C 164.785156 237.601562 164.316406 234.980469 164.585938 233.851562 C 164.980469 232.207031 166.734375 231.003906 169.042969 231.007812 L 207.445312 231.039062 C 209.582031 231.039062 211.207031 232.640625 211.433594 233.917969 C 211.824219 236.15625 210.101562 237.765625 207.503906 237.753906 Z M 207.503906 237.753906 " fill-opacity="1" fill-rule="nonzero"/><path fill="#ffffff" d="M 207.542969 201.859375 L 167.902344 201.839844 C 165.859375 201.839844 164.539062 200.328125 164.507812 198.707031 C 164.484375 197.390625 165.742188 195.132812 168.046875 195.136719 L 208.183594 195.21875 C 210.351562 195.226562 211.542969 197.519531 211.554688 198.746094 C 211.570312 200.597656 209.875 201.859375 207.542969 201.859375 Z M 207.542969 201.859375 " fill-opacity="1" fill-rule="nonzero"/><path fill="#ffffff" d="M 136.660156 245.617188 C 134.007812 245.707031 127.296875 237.972656 125.90625 235.675781 C 125.023438 234.214844 125.675781 232.820312 126.632812 232.125 C 127.660156 231.375 129.269531 230.96875 130.519531 232 L 136.445312 236.875 C 141.757812 233.488281 147.992188 220.203125 153.011719 223.828125 C 153.894531 224.464844 154.636719 226.675781 153.429688 228.070312 L 139.941406 243.636719 C 138.960938 244.761719 137.855469 245.574219 136.660156 245.617188 Z M 136.660156 245.617188 " fill-opacity="1" fill-rule="nonzero"/><path fill="#ffffff" d="M 139.207031 172.808594 C 135.863281 176.679688 130.222656 169.144531 126.605469 164.917969 C 125.464844 163.585938 125.429688 161.878906 125.996094 161.039062 C 129.191406 156.273438 134.441406 164.292969 136.941406 165.164062 C 140.890625 161.640625 148.65625 148.738281 152.644531 151.832031 C 154.117188 152.96875 154.617188 154.96875 153.304688 156.488281 L 139.210938 172.8125 Z M 139.207031 172.808594 " fill-opacity="1" fill-rule="nonzero"/><path fill="#ffffff" d="M 135.921875 209.855469 C 133.761719 208.578125 123.980469 200.230469 126.011719 197.113281 C 126.8125 195.886719 129.09375 194.917969 130.492188 196.0625 L 136.519531 200.996094 L 148.125 188.597656 C 149.621094 186.996094 151.441406 186.671875 152.773438 187.804688 C 154.226562 189.035156 154.691406 190.980469 153.234375 192.625 L 140.105469 207.480469 C 139.3125 208.375 137.34375 210.695312 135.917969 209.855469 Z M 135.921875 209.855469 " fill-opacity="1" fill-rule="nonzero"/><g clip-path="url(#b73a30b68e)"><path fill="#002060" d="M 282.027344 242.746094 C 282.027344 244.164062 281.960938 245.578125 281.820312 246.992188 C 281.683594 248.402344 281.472656 249.800781 281.199219 251.191406 C 280.921875 252.582031 280.578125 253.957031 280.164062 255.3125 C 279.753906 256.671875 279.277344 258.003906 278.734375 259.3125 C 278.191406 260.625 277.585938 261.902344 276.917969 263.152344 C 276.25 264.40625 275.519531 265.617188 274.734375 266.796875 C 273.945312 267.976562 273.101562 269.113281 272.203125 270.210938 C 271.304688 271.304688 270.351562 272.355469 269.351562 273.359375 C 268.347656 274.359375 267.296875 275.3125 266.203125 276.210938 C 265.105469 277.109375 263.96875 277.953125 262.789062 278.742188 C 261.613281 279.527344 260.398438 280.257812 259.144531 280.925781 C 257.894531 281.59375 256.617188 282.199219 255.304688 282.742188 C 253.996094 283.285156 252.664062 283.761719 251.304688 284.171875 C 249.949219 284.585938 248.574219 284.929688 247.183594 285.203125 C 245.796875 285.480469 244.394531 285.6875 242.984375 285.828125 C 241.574219 285.96875 240.15625 286.035156 238.738281 286.035156 C 237.324219 286.035156 235.90625 285.96875 234.496094 285.828125 C 233.085938 285.6875 231.683594 285.480469 230.292969 285.203125 C 228.90625 284.929688 227.53125 284.585938 226.175781 284.171875 C 224.816406 283.761719 223.484375 283.285156 222.175781 282.742188 C 220.863281 282.199219 219.585938 281.59375 218.332031 280.925781 C 217.082031 280.257812 215.867188 279.527344 214.691406 278.742188 C 213.511719 277.953125 212.375 277.109375 211.277344 276.210938 C 210.183594 275.3125 209.132812 274.359375 208.128906 273.359375 C 207.128906 272.355469 206.175781 271.304688 205.277344 270.210938 C 204.378906 269.113281 203.535156 267.976562 202.746094 266.796875 C 201.957031 265.617188 201.230469 264.40625 200.5625 263.152344 C 199.894531 261.902344 199.289062 260.625 198.746094 259.3125 C 198.203125 258.003906 197.726562 256.671875 197.316406 255.3125 C 196.902344 253.957031 196.558594 252.582031 196.28125 251.191406 C 196.007812 249.800781 195.796875 248.402344 195.660156 246.992188 C 195.519531 245.578125 195.449219 244.164062 195.449219 242.746094 C 195.449219 241.328125 195.519531 239.914062 195.660156 238.503906 C 195.796875 237.09375 196.007812 235.691406 196.28125 234.300781 C 196.558594 232.910156 196.902344 231.539062 197.316406 230.179688 C 197.726562 228.824219 198.203125 227.492188 198.746094 226.183594 C 199.289062 224.871094 199.894531 223.589844 200.5625 222.339844 C 201.230469 221.089844 201.957031 219.875 202.746094 218.699219 C 203.535156 217.519531 204.378906 216.382812 205.277344 215.285156 C 206.175781 214.191406 207.128906 213.140625 208.128906 212.136719 C 209.132812 211.136719 210.183594 210.183594 211.277344 209.285156 C 212.375 208.386719 213.511719 207.542969 214.691406 206.753906 C 215.867188 205.964844 217.082031 205.238281 218.332031 204.570312 C 219.585938 203.902344 220.863281 203.296875 222.175781 202.753906 C 223.484375 202.210938 224.816406 201.734375 226.175781 201.324219 C 227.53125 200.910156 228.90625 200.566406 230.292969 200.289062 C 231.683594 200.015625 233.085938 199.804688 234.496094 199.667969 C 235.90625 199.527344 237.324219 199.457031 238.738281 199.457031 C 240.15625 199.457031 241.574219 199.527344 242.984375 199.667969 C 244.394531 199.804688 245.796875 200.015625 247.183594 200.289062 C 248.574219 200.566406 249.949219 200.910156 251.304688 201.324219 C 252.664062 201.734375 253.996094 202.210938 255.304688 202.753906 C 256.617188 203.296875 257.894531 203.902344 259.144531 204.570312 C 260.398438 205.238281 261.613281 205.964844 262.789062 206.753906 C 263.96875 207.542969 265.105469 208.386719 266.203125 209.285156 C 267.296875 210.183594 268.347656 211.136719 269.351562 212.136719 C 270.351562 213.140625 271.304688 214.191406 272.203125 215.285156 C 273.101562 216.382812 273.945312 217.519531 274.734375 218.699219 C 275.519531 219.875 276.25 221.089844 276.917969 222.339844 C 277.585938 223.589844 278.191406 224.871094 278.734375 226.183594 C 279.277344 227.492188 279.753906 228.824219 280.164062 230.179688 C 280.578125 231.539062 280.921875 232.910156 281.199219 234.300781 C 281.472656 235.691406 281.683594 237.09375 281.820312 238.503906 C 281.960938 239.914062 282.027344 241.328125 282.027344 242.746094 Z M 282.027344 242.746094 " fill-opacity="1" fill-rule="nonzero"/></g><g clip-path="url(#95580698e6)"><path fill="#ffffff" d="M 238.730469 204.539062 C 217.679688 204.539062 200.53125 221.6875 200.53125 242.738281 C 200.53125 263.789062 217.679688 280.9375 238.730469 280.9375 C 259.78125 280.9375 276.929688 263.789062 276.929688 242.738281 C 276.929688 221.6875 259.78125 204.539062 238.730469 204.539062 Z M 238.730469 212.179688 C 255.652344 212.179688 269.289062 225.816406 269.289062 242.738281 C 269.289062 259.660156 255.652344 273.296875 238.730469 273.296875 C 221.808594 273.296875 208.171875 259.660156 208.171875 242.738281 C 208.171875 225.816406 221.808594 212.179688 238.730469 212.179688 Z M 253.9375 231.242188 C 252.90625 231.269531 252.027344 231.65625 251.308594 232.398438 L 234.910156 248.796875 L 226.152344 240.039062 C 225.976562 239.855469 225.78125 239.691406 225.574219 239.542969 C 225.367188 239.398438 225.144531 239.277344 224.910156 239.175781 C 224.679688 239.074219 224.4375 239 224.1875 238.945312 C 223.941406 238.894531 223.6875 238.867188 223.433594 238.863281 C 223.179688 238.859375 222.929688 238.882812 222.679688 238.929688 C 222.429688 238.976562 222.1875 239.050781 221.953125 239.144531 C 221.714844 239.242188 221.492188 239.359375 221.28125 239.5 C 221.070312 239.640625 220.875 239.800781 220.695312 239.980469 C 220.515625 240.160156 220.355469 240.355469 220.214844 240.570312 C 220.074219 240.78125 219.953125 241.003906 219.859375 241.238281 C 219.761719 241.472656 219.691406 241.714844 219.644531 241.964844 C 219.59375 242.214844 219.574219 242.46875 219.574219 242.722656 C 219.578125 242.976562 219.605469 243.226562 219.660156 243.476562 C 219.710938 243.722656 219.789062 243.964844 219.890625 244.199219 C 219.988281 244.433594 220.113281 244.652344 220.257812 244.863281 C 220.402344 245.070312 220.566406 245.261719 220.75 245.4375 L 232.210938 256.898438 C 232.566406 257.257812 232.980469 257.53125 233.449219 257.726562 C 233.917969 257.921875 234.402344 258.015625 234.910156 258.015625 C 235.417969 258.015625 235.902344 257.921875 236.371094 257.726562 C 236.839844 257.53125 237.253906 257.257812 237.613281 256.898438 L 256.710938 237.800781 C 256.988281 237.53125 257.21875 237.226562 257.402344 236.890625 C 257.585938 236.550781 257.714844 236.195312 257.792969 235.816406 C 257.871094 235.441406 257.886719 235.058594 257.851562 234.675781 C 257.8125 234.292969 257.71875 233.925781 257.566406 233.570312 C 257.417969 233.214844 257.21875 232.890625 256.96875 232.597656 C 256.722656 232.304688 256.4375 232.050781 256.113281 231.84375 C 255.789062 231.636719 255.441406 231.480469 255.070312 231.378906 C 254.699219 231.273438 254.320312 231.230469 253.9375 231.242188 Z M 253.9375 231.242188 " fill-opacity="1" fill-rule="nonzero"/></g></svg>